<svg id="insta" xmlns="http://www.w3.org/2000/svg" width="41.345" height="41.345" viewBox="0 0 41.345 41.345">
  <g id="Group_11" data-name="Group 11">
    <g id="Group_10" data-name="Group 10">
      <path id="Path_54" data-name="Path 54" d="M28.425,0H12.92A12.922,12.922,0,0,0,0,12.92v15.5a12.922,12.922,0,0,0,12.92,12.92h15.5a12.922,12.922,0,0,0,12.92-12.92V12.92A12.922,12.922,0,0,0,28.425,0Zm9.044,28.425a9.054,9.054,0,0,1-9.044,9.044H12.92a9.054,9.054,0,0,1-9.044-9.044V12.92A9.054,9.054,0,0,1,12.92,3.876h15.5a9.054,9.054,0,0,1,9.044,9.044Z" fill="#fff"/>
    </g>
  </g>
  <g id="Group_13" data-name="Group 13" transform="translate(10.336 10.336)">
    <g id="Group_12" data-name="Group 12">
      <path id="Path_55" data-name="Path 55" d="M138.336,128a10.336,10.336,0,1,0,10.336,10.336A10.337,10.337,0,0,0,138.336,128Zm0,16.8a6.46,6.46,0,1,1,6.46-6.46A6.469,6.469,0,0,1,138.336,144.8Z" transform="translate(-128 -128)" fill="#fff"/>
    </g>
  </g>
  <g id="Group_15" data-name="Group 15" transform="translate(30.406 8.184)">
    <g id="Group_14" data-name="Group 14">
      <circle id="Ellipse_16" data-name="Ellipse 16" cx="1.377" cy="1.377" r="1.377" fill="#fff"/>
    </g>
  </g>
</svg>
