<svg id="wps" xmlns="http://www.w3.org/2000/svg" width="45.685" height="45.685" viewBox="0 0 45.685 45.685">
  <g id="Group_16" data-name="Group 16">
    <path id="Path_56" data-name="Path 56" d="M22.848,0h-.011A22.828,22.828,0,0,0,4.349,36.231L1.5,44.717l8.78-2.807A22.838,22.838,0,1,0,22.848,0ZM36.14,32.256c-.551,1.556-2.738,2.847-4.483,3.224-1.194.254-2.753.457-8-1.719-6.713-2.781-11.036-9.6-11.373-10.045S9.571,20.1,9.571,16.826a7.292,7.292,0,0,1,2.336-5.559,3.319,3.319,0,0,1,2.336-.819c.283,0,.537.014.765.026.671.029,1.008.069,1.45,1.128.551,1.328,1.893,4.606,2.053,4.943a1.36,1.36,0,0,1,.1,1.236,3.947,3.947,0,0,1-.74,1.048c-.337.388-.657.685-.994,1.1-.308.363-.657.751-.268,1.422a20.275,20.275,0,0,0,3.706,4.606,16.794,16.794,0,0,0,5.357,3.3,1.444,1.444,0,0,0,1.61-.254,27.637,27.637,0,0,0,1.785-2.364,1.275,1.275,0,0,1,1.639-.5c.617.214,3.88,1.827,4.551,2.161s1.114.5,1.276.779A5.689,5.689,0,0,1,36.14,32.256Z" fill="#fff"/>
  </g>
</svg>
