<?xml version="1.0" encoding="utf-8"?>
<!-- Generator: Adobe Illustrator 22.0.0, SVG Export Plug-In . SVG Version: 6.00 Build 0)  -->
<svg version="1.1" id="ed9a5289-909a-4a20-a574-95ddcacbe55c"
	 xmlns="http://www.w3.org/2000/svg" xmlns:xlink="http://www.w3.org/1999/xlink" x="0px" y="0px" viewBox="0 0 797.5 741.6"
	 style="enable-background:new 0 0 797.5 741.6;" xml:space="preserve">
<style type="text/css">
	.st0{fill:#E6E6E6;}
	.st1{fill:#3F3D56;}
	.st2{fill:#FFFFFF;}
	.st3{fill:#6C63FF;}
	.st4{opacity:0.1;enable-background:new    ;}
</style>
<title>online_messaging</title>
<ellipse class="st0" cx="440.8" cy="719.5" rx="333.9" ry="18"/>
<path class="st1" d="M684,172.9h-4V63.4c0-35-28.4-63.4-63.4-63.4c0,0,0,0,0,0H384.5c-35,0-63.4,28.4-63.4,63.4c0,0,0,0,0,0v601
	c0,35,28.4,63.4,63.4,63.4c0,0,0,0,0,0h232.1c35,0,63.4-28.4,63.4-63.4c0,0,0,0,0,0V250.9h4V172.9z"/>
<path class="st2" d="M619.2,16.5h-30.3c4.7,11.5-0.8,24.6-12.3,29.3c-2.7,1.1-5.6,1.7-8.5,1.7h-133c-12.4,0-22.5-10.1-22.5-22.5
	c0-2.9,0.6-5.8,1.7-8.5H386c-26.1,0-47.3,21.2-47.3,47.3v600.1c0,26.1,21.2,47.3,47.3,47.3c0,0,0,0,0,0h233.2
	c26.1,0,47.3-21.2,47.3-47.3l0,0V63.8C666.5,37.7,645.3,16.5,619.2,16.5z"/>
<path class="st0" d="M514.8,668.8c-49.6,0-89.9-40.2-89.9-89.8c0-49.6,40.2-89.9,89.8-89.9c49.6,0,89.9,40.2,89.9,89.8
	c0,22.4-8.3,43.9-23.4,60.5l18.8,21l-9.4,4c-14.5,6.1-28.7,0.2-36.6-4.6C541.8,665.7,528.4,668.8,514.8,668.8z M514.8,503.8
	c-41.5,0-75.2,33.7-75.2,75.2c0,41.5,33.7,75.2,75.2,75.2c12.6,0,25-3.2,36.1-9.2l4-2.2l3.7,2.7c4.3,3.1,9.1,5.3,14.2,6.5
	l-11.8-13.2l5.2-4.9c15.2-14.2,23.8-34,23.7-54.8C589.9,537.5,556.3,503.9,514.8,503.8z"/>
<path class="st2" d="M597.3,579c0-45.5-36.9-82.4-82.5-82.4c-45.5,0-82.4,36.9-82.4,82.5c0,45.5,36.9,82.4,82.5,82.4
	c13.8,0,27.5-3.5,39.6-10.1c5.7,4.1,19.6,12.1,33.3,6.3l-16.5-18.5C587.9,623.6,597.3,601.8,597.3,579z"/>
<rect x="472.3" y="562.2" class="st3" width="58.9" height="5.5"/>
<rect x="472.3" y="581.1" class="st0" width="102.7" height="5.5"/>
<rect x="472.3" y="600" class="st0" width="102.6" height="5.5"/>
<path class="st0" d="M514.8,269.8c-49.6,0-89.9-40.2-89.9-89.8s40.2-89.9,89.8-89.9c49.6,0,89.9,40.2,89.9,89.8
	c0,22.4-8.3,43.9-23.4,60.5l18.8,21l-9.4,4c-14.5,6.1-28.7,0.2-36.6-4.6C541.8,266.7,528.4,269.8,514.8,269.8z M514.8,104.8
	c-41.5,0-75.2,33.7-75.2,75.2s33.7,75.2,75.2,75.2c12.6,0,25-3.2,36.1-9.2l4-2.2l3.7,2.7c4.3,3.1,9.1,5.3,14.2,6.5l-11.8-13.2
	l5.2-4.9c15.2-14.2,23.8-34,23.7-54.8C589.9,138.5,556.3,104.9,514.8,104.8L514.8,104.8z"/>
<path class="st2" d="M597.3,180c0-45.5-36.9-82.4-82.5-82.4c-45.5,0-82.4,36.9-82.4,82.5c0,45.5,36.9,82.4,82.5,82.4
	c13.8,0,27.5-3.5,39.6-10.1c5.7,4.1,19.6,12.1,33.3,6.3l-16.5-18.5C587.9,224.6,597.3,202.8,597.3,180z"/>
<rect x="472.3" y="163.2" class="st3" width="58.9" height="5.5"/>
<rect x="472.3" y="182.1" class="st0" width="102.7" height="5.5"/>
<rect x="472.3" y="201" class="st0" width="102.6" height="5.5"/>
<circle class="st0" cx="629" cy="264.4" r="13"/>
<circle class="st0" cx="629" cy="663.4" r="13"/>
<path class="st3" d="M361,458.3c-8.3,5-23,11.2-38,4.8l-9.7-4.1l19.5-21.9c-34.5-38.1-31.7-97,6.4-131.5
	c38.1-34.5,97-31.7,131.5,6.4c34.5,38.1,31.7,97-6.4,131.5C436.1,469.1,395.2,474.9,361,458.3z M323.7,374.4
	c-0.1,21.6,8.8,42.2,24.6,56.9l5.4,5.1l-12.3,13.8c5.3-1.2,10.4-3.5,14.8-6.8l3.9-2.8l4.2,2.3c37.8,20.7,85.3,6.9,106-30.9
	c20.7-37.8,6.9-85.3-30.9-106s-85.3-6.9-106,30.9C327,348.4,323.7,361.3,323.7,374.4z"/>
<path class="st2" d="M316.1,374.4c0-47.3,38.4-85.6,85.7-85.6c47.3,0,85.6,38.4,85.6,85.7c0,47.3-38.4,85.6-85.7,85.6
	c-14.4,0-28.5-3.6-41.1-10.5c-5.9,4.2-20.4,12.6-34.6,6.6l17.2-19.3C325.9,420.7,316.1,398.1,316.1,374.4z"/>
<path class="st4" d="M472.3,374c0-44.4-33.9-81.4-78.1-85.3c2.5-0.2,5-0.3,7.6-0.3c47.3,0,85.7,38.4,85.6,85.7
	c0,47.3-38.3,85.6-85.6,85.6c-2.5,0-5.1-0.1-7.6-0.3C438.4,455.4,472.3,418.4,472.3,374z"/>
<rect x="352.6" y="356.9" class="st3" width="61.2" height="5.7"/>
<rect x="352.6" y="376.6" class="st3" width="106.7" height="5.7"/>
<rect x="352.6" y="396.2" class="st3" width="106.6" height="5.7"/>
</svg>
